<svg xmlns="http://www.w3.org/2000/svg" xmlns:xlink="http://www.w3.org/1999/xlink" width="500" zoomAndPan="magnify" viewBox="0 0 375 374.999991" height="500" preserveAspectRatio="xMidYMid meet" version="1.0"><path fill="#e88034" d="M 19.09375 187.417969 C 19.09375 107.441406 75.257812 40.390625 149.589844 23.335938 L 149.589844 173.890625 C 149.589844 198.628906 140.585938 218.042969 111.921875 218.042969 C 84.863281 218.042969 74.9375 201.191406 74.9375 175.972656 L 74.9375 169.96875 L 55.722656 169.96875 L 55.722656 177.332031 C 55.722656 211.316406 71.011719 236.535156 111.882812 236.535156 C 151.875 236.535156 168.484375 208.074219 168.484375 175.25 C 168.484375 107.441406 168.484375 30.742188 168.484375 0.960938 C 74.855469 10.328125 0.078125 89.785156 0.078125 187.417969 C 0.078125 314.914062 125.574219 405.703125 246.585938 365.3125 C 232.292969 364.390625 219.644531 360.589844 209.277344 354.425781 C 97.714844 365.273438 19.09375 281.410156 19.09375 187.417969 Z M 19.09375 187.417969 " fill-opacity="1" fill-rule="nonzero"/><path fill="#e88034" d="M 183.175781 0.0390625 L 183.175781 19.054688 C 327.925781 16.09375 409.023438 183.976562 317.195312 294.699219 C 311.273438 236.65625 215.082031 242.140625 215.082031 201.390625 C 215.082031 187.058594 227.570312 174.609375 252.75 174.609375 C 280.929688 174.609375 290.175781 188.21875 289.734375 197.46875 L 308.230469 197.46875 C 309.152344 181.054688 296.179688 156.316406 252.75 156.316406 C 222.726562 156.316406 195.425781 169.007812 195.425781 201.589844 C 195.425781 261.675781 297.582031 253.550781 297.582031 299.101562 C 297.582031 322.441406 276.285156 332.40625 253.871094 332.40625 C 229.171875 332.40625 212.277344 321.320312 213.199219 302.347656 L 194.023438 302.347656 C 194.023438 354.183594 266.71875 362.390625 299.382812 337.652344 C 345.378906 303.265625 374.878906 248.625 374.878906 187.421875 C 374.917969 83.503906 289.617188 -2.121094 183.175781 0.0390625 Z M 183.175781 0.0390625 " fill-opacity="1" fill-rule="nonzero"/></svg>